<svg xmlns="http://www.w3.org/2000/svg" viewBox="-2 -2 62.17 84.54" fill="none"><path d="M11.75 80.41L34.8 80.54M34.8 80.54L46.04 60.36M46.04 60.36L58.17 40.4M58.17 40.4L46.23 20.33M46.23 20.33L34.69 0M34.69 0L11.67 0.66M11.67 0.66L0.12 20.21M0.12 20.21L11.86 40.62M11.86 40.62L0 60.63M0 60.63L11.75 80.41M58.17 40.4L46.57 40.36M46.57 40.36L46.23 20.33M46.04 60.36L46.57 40.36M23.3 60.56L29 50.41M29 50.41L46.04 60.36M46.04 60.36L23.3 60.56M46.04 60.36L28.88 70.73M28.88 70.73L23.3 60.56M29 50.41L11.86 40.62M11.86 40.62L34.87 40.21M34.87 40.21L29 50.41M11.86 40.62L28.89 30.19M28.89 30.19L34.87 40.21M23.38 20.09L46.23 20.33M46.23 20.33L28.89 30.19M28.89 30.19L23.38 20.09M23.38 20.09L28.89 9.99M28.89 9.99L46.23 20.33M11.86 40.62L23.38 20.09M23.3 60.56L11.86 40.62M28.88 70.73L11.75 80.41M11.75 80.41L23.3 60.56M28.88 70.73L34.8 80.54M34.87 40.21L46.04 60.36M34.87 40.21L46.57 40.36M34.87 40.21L46.23 20.33M28.89 9.99L34.69 0M28.89 9.99L11.67 0.66M23.38 20.09L11.67 0.66M23.38 20.09L11.57 20.19M11.57 20.19L11.67 0.66M11.86 40.62L11.57 20.19M23.3 60.56L11.57 60.73M11.57 60.73L11.86 40.62M11.75 80.41L11.57 60.73M0 60.63L11.57 60.73M11.57 20.19L0.12 20.21" fill="none" stroke="#FAF7F2" stroke-width="0.81" stroke-linejoin="round" stroke-linecap="round"/></svg>
